# xmcd CD database file
#
# Track frame offsets:
#	150
#	18182
#	33917
#	46130
#	68850
#	85207
#	104857
#	124297
#	129972
#	147430
#	164967
#
# Disc length: 2373 seconds
#
# Revision: 3
# Processed by: cddbd v1.5.2PL0 Copyright (c) Steve Scherf et al.
# Submitted via: jetAudio 7
#
DISCID=9d09430b
DTITLE=Yoni Roeh - Tabak
DYEAR=1900
DGENRE=country
TTITLE0=I will love You
TTITLE1=Ella
TTITLE2=Wheat
TTITLE3=Sad to the sky
TTITLE4=She is so beautiful
TTITLE5=If You come now
TTITLE6=One way
TTITLE7=The sacrifice of issac
TTITLE8=Tabak
TTITLE9=Two people
TTITLE10=Guitar
EXTD=
EXTT0=
EXTT1=
EXTT2=
EXTT3=
EXTT4=
EXTT5=
EXTT6=
EXTT7=
EXTT8=
EXTT9=
EXTT10=
PLAYORDER=
